<?xml version="1.0" encoding="UTF-8"?>
<svg width="149px" height="72px" viewBox="0 0 149 72" version="1.1" xmlns="http://www.w3.org/2000/svg" xmlns:xlink="http://www.w3.org/1999/xlink">
    <!-- Generator: Sketch 58 (84663) - https://sketch.com -->
    <title>helix-swarm-vertical-logo</title>
    <desc>Created with Sketch.</desc>
    <g id="Login" stroke="none" stroke-width="1" fill="none" fill-rule="evenodd">
        <g transform="translate(-646.000000, -60.000000)" fill-rule="nonzero" id="helix-swarm-vertical-logo">
            <g transform="translate(520.000000, 60.000000)">
                <g transform="translate(126.000000, 0.000000)">
                    <path d="M55.832,10.6248 C55.544,10.7912 55.308,11.1992 55.308,11.532 L55.308,32.0968 C55.308,32.4296 55.544,32.8384 55.832,33.004 L73.6416,43.2864 C73.9296,43.4536 74.4008,43.4536 74.6896,43.2864 L92.4984,33.004 C92.7872,32.8384 93.0224,32.4296 93.0224,32.0968 L93.0224,11.532 C93.0224,11.1992 92.7872,10.7912 92.4984,10.6248 L74.6896,0.3424 C74.4008,0.176 73.9296,0.176 73.6416,0.3424 L55.832,10.6248 Z" id="Path" fill="#F1F1F2"></path>
                    <path d="M72.1808,24.2144 C71.9224,24.2144 71.68,24.128 71.48,23.9648 L67.2384,20.5056 L71.4528,17.0696 C71.6536,16.9064 71.896,16.82 72.1536,16.82 C72.4896,16.82 72.8032,16.9688 73.0152,17.2288 C73.2024,17.4584 73.2888,17.7472 73.2592,18.0424 C73.2288,18.3376 73.0856,18.6032 72.856,18.7904 L70.752,20.5064 L72.8832,22.244 C73.1128,22.4312 73.256,22.6976 73.2856,22.992 C73.3152,23.2872 73.2288,23.576 73.0416,23.8056 C72.8304,24.0656 72.516,24.2144 72.1808,24.2144" id="Path" fill="#63A70A"></path>
                    <path d="M76.2984,24.2144 C75.9632,24.2144 75.6488,24.0656 75.4376,23.8056 C75.0504,23.3312 75.1216,22.6312 75.596,22.244 L77.7272,20.5064 L75.6232,18.7904 C75.3936,18.6032 75.2496,18.3376 75.22,18.0424 C75.1904,17.7472 75.276,17.4584 75.464,17.2288 C75.6768,16.9688 75.9896,16.82 76.3256,16.82 C76.5824,16.82 76.8256,16.9064 77.0264,17.0696 L81.2408,20.5056 L76.9992,23.9648 C76.7992,24.128 76.5568,24.2144 76.2984,24.2144" id="Path" fill="#63A70A"></path>
                    <path d="M81.9784,11.7528 L66.3528,11.7528 C64.3128,11.7528 62.6528,13.4128 62.6528,15.4528 L62.6528,25.2368 C62.6528,27.2776 64.3128,28.9368 66.3528,28.9368 L79.2192,28.9368 L74.828,34.8312 L78.4664,34.8152 L82.0384,30.12 C82.744,29.1928 82.9064,28.1712 82.4832,27.3192 C82.0616,26.4664 81.1504,25.9768 79.9848,25.9768 L66.3528,25.9768 C65.952,25.9768 65.6128,25.6376 65.6128,25.2368 L65.6128,15.4528 C65.6128,15.052 65.952,14.7128 66.3528,14.7128 L81.9784,14.7128 C82.3792,14.7128 82.7192,15.052 82.7192,15.4528 L82.7192,22.284 C82.7192,23.1016 83.3816,23.7648 84.1992,23.7648 C85.0168,23.7648 85.68,23.1016 85.68,22.284 L85.68,15.4528 C85.6792,13.4136 84.0184,11.7528 81.9784,11.7528" id="Path" fill="#63A70A"></path>
                    <polygon id="Path" fill="#FFFFFF" points="0.7816 51.8 2.7784 51.8 2.7784 60.3096 13.4784 60.3096 13.4784 51.8 15.4744 51.8 15.4744 71.4264 13.4784 71.4264 13.4784 62.1392 2.7784 62.1392 2.7784 71.4264 0.7816 71.4264"></polygon>
                    <path d="M21.4056,65.4384 C21.4608,66.0864 21.6176,66.6952 21.876,67.268 C22.1352,67.8416 22.4768,68.336 22.9024,68.7512 C23.3272,69.1672 23.8176,69.4952 24.372,69.7344 C24.9264,69.9744 25.5264,70.0944 26.1736,70.0944 C27.1528,70.0944 27.9992,69.8688 28.7096,69.416 C29.4208,68.9632 29.9624,68.44 30.332,67.8488 L31.7456,69.0128 C30.9696,69.9928 30.1144,70.696 29.1816,71.1208 C28.248,71.5448 27.2448,71.7584 26.1736,71.7584 C25.212,71.7584 24.3208,71.5864 23.4984,71.2448 C22.676,70.9032 21.9696,70.4272 21.3784,69.8176 C20.7864,69.2072 20.32,68.4864 19.9776,67.6552 C19.636,66.824 19.4656,65.9176 19.4656,64.9384 C19.4656,63.9576 19.632,63.0536 19.9632,62.2208 C20.296,61.3896 20.7584,60.6696 21.3496,60.06 C21.9408,59.4504 22.6344,58.9744 23.4288,58.632 C24.2232,58.2896 25.0832,58.1192 26.0072,58.1192 C26.9864,58.1192 27.8648,58.2944 28.6408,58.6448 C29.4176,58.9952 30.0688,59.4624 30.5952,60.0448 C31.1216,60.6272 31.524,61.3112 31.8008,62.0968 C32.0784,62.8824 32.2168,63.7184 32.2168,64.6056 L32.2168,65.4368 L21.4056,65.4368 L21.4056,65.4384 Z M30.2208,63.9416 C30.2208,62.704 29.8512,61.7008 29.112,60.9336 C28.372,60.1672 27.3376,59.7832 26.0072,59.7832 C25.416,59.7832 24.8424,59.8992 24.288,60.1304 C23.7344,60.3616 23.2496,60.6712 22.8328,61.0584 C22.4176,61.4464 22.0848,61.8912 21.836,62.3896 C21.5856,62.888 21.4608,63.4064 21.4608,63.9416 L30.2208,63.9416 L30.2208,63.9416 Z" id="Shape" fill="#FFFFFF"></path>
                    <rect id="Rectangle" fill="#FFFFFF" x="35.96" y="50.4704" width="1.8296" height="20.956"></rect>
                    <path d="M44.8584,53.4624 C44.8584,53.8496 44.72,54.1704 44.4424,54.4184 C44.1656,54.668 43.8608,54.7936 43.528,54.7936 C43.1952,54.7936 42.8896,54.6688 42.6136,54.4184 C42.336,54.1696 42.1968,53.8496 42.1968,53.4624 C42.1968,53.0752 42.336,52.756 42.6136,52.5064 C42.8896,52.2568 43.1952,52.132 43.528,52.132 C43.8608,52.132 44.1656,52.2568 44.4424,52.5064 C44.72,52.756 44.8584,53.0752 44.8584,53.4624 L44.8584,53.4624 Z M44.4424,71.4264 L42.6128,71.4264 L42.6128,58.4528 L44.4424,58.4528 L44.4424,71.4264 Z" id="Shape" fill="#FFFFFF"></path>
                    <polygon id="Path" fill="#FFFFFF" points="52.204 64.496 47.4912 58.4512 49.9864 58.4512 53.5896 63.304 57.0264 58.4512 59.3 58.4512 54.7816 64.496 60.2152 71.4264 57.72 71.4264 53.368 65.744 49.1816 71.4264 46.8536 71.4264"></polygon>
                    <path d="M71.9136,56.5952 C71.5632,56.1512 71.0864,55.824 70.4856,55.6112 C69.8848,55.3984 69.3168,55.2928 68.7808,55.2928 C68.4664,55.2928 68.1432,55.3296 67.8112,55.404 C67.4784,55.4792 67.164,55.5936 66.868,55.7512 C66.5728,55.9088 66.332,56.1152 66.1472,56.3744 C65.9624,56.6328 65.8704,56.948 65.8704,57.3168 C65.8704,57.9088 66.0928,58.3616 66.5352,58.676 C66.98,58.9904 67.5384,59.2576 68.2128,59.4792 C68.8872,59.7008 69.6128,59.9232 70.3888,60.1448 C71.1656,60.3656 71.8896,60.6808 72.5648,61.0872 C73.24,61.4944 73.7984,62.0384 74.2416,62.7232 C74.6856,63.4072 74.9072,64.3216 74.9072,65.4672 C74.9072,66.5584 74.704,67.5096 74.2976,68.3224 C73.8912,69.136 73.3416,69.8104 72.648,70.3464 C71.9552,70.8824 71.1512,71.2792 70.2368,71.5384 C69.3224,71.796 68.356,71.9264 67.34,71.9264 C66.0648,71.9264 64.8808,71.7312 63.792,71.344 C62.7,70.956 61.684,70.3272 60.7424,69.4584 L63.8192,66.0768 C64.2624,66.6672 64.8216,67.1256 65.4968,67.4488 C66.1704,67.772 66.868,67.9328 67.5888,67.9328 C67.94,67.9328 68.2968,67.8912 68.6568,67.8096 C69.0168,67.7264 69.34,67.6 69.6264,67.4344 C69.9136,67.2672 70.1432,67.056 70.3192,66.7968 C70.4952,66.5392 70.5824,66.2328 70.5824,65.8808 C70.5824,65.2904 70.3568,64.824 69.904,64.4808 C69.4504,64.14 68.8824,63.848 68.1992,63.6088 C67.5144,63.368 66.776,63.128 65.9808,62.888 C65.1864,62.648 64.4472,62.3248 63.7632,61.9168 C63.08,61.5104 62.5112,60.9744 62.0584,60.3104 C61.6064,59.6448 61.38,58.7664 61.38,57.676 C61.38,56.6224 61.5872,55.6984 62.0032,54.904 C62.4192,54.1088 62.9736,53.4448 63.6664,52.9088 C64.3592,52.3712 65.1592,51.9696 66.0648,51.7024 C66.9696,51.4336 67.9032,51.2992 68.8648,51.2992 C69.9736,51.2992 71.0448,51.4568 72.08,51.7712 C73.1144,52.0856 74.048,52.612 74.88,53.352 L71.9136,56.5952 Z" id="Path" fill="#FFFFFF"></path>
                    <polygon id="Path" fill="#FFFFFF" points="75.988 57.9528 80.424 57.9528 83.1688 66.408 83.224 66.408 85.5248 57.9528 90.072 57.9528 92.5656 66.408 92.6216 66.408 95.1448 57.9528 99.3568 57.9528 94.5624 71.4264 90.4592 71.4264 87.6592 62.472 87.6048 62.472 85.1096 71.4264 80.9232 71.4264"></polygon>
                    <path d="M109.1432,69.7352 L109.088,69.7352 C108.6256,70.456 108.0112,70.9736 107.2448,71.2872 C106.4776,71.6016 105.6688,71.7592 104.8184,71.7592 C104.1912,71.7592 103.5856,71.6712 103.0016,71.4952 C102.42,71.32 101.9072,71.056 101.464,70.7056 C101.02,70.3552 100.6688,69.9208 100.4112,69.4032 C100.1512,68.8864 100.024,68.2848 100.024,67.6008 C100.024,66.8232 100.1664,66.1688 100.4528,65.6328 C100.7392,65.0968 101.1272,64.6528 101.6168,64.3016 C102.1064,63.9512 102.6664,63.6784 103.2944,63.4848 C103.9224,63.2912 104.5744,63.1472 105.2488,63.0552 C105.9224,62.9632 106.5976,62.9064 107.272,62.888 C107.9464,62.8712 108.5688,62.86 109.1432,62.86 C109.1432,62.1224 108.88,61.536 108.3536,61.1008 C107.8272,60.6672 107.2032,60.4496 106.4824,60.4496 C105.7992,60.4496 105.1744,60.5936 104.6104,60.8792 C104.0464,61.1656 103.544,61.5592 103.1,62.0576 L100.8832,59.784 C101.6584,59.064 102.5648,58.5232 103.5992,58.1624 C104.6352,57.8032 105.7064,57.6232 106.816,57.6232 C108.0352,57.6232 109.0368,57.7736 109.8232,58.0792 C110.608,58.384 111.2376,58.8328 111.708,59.4232 C112.18,60.0152 112.508,60.74 112.6912,61.6008 C112.876,62.4592 112.9696,63.4528 112.9696,64.5816 L112.9696,71.4288 L109.144,71.4288 L109.144,69.7352 L109.1432,69.7352 Z M108.1168,65.5216 C107.8008,65.5216 107.4096,65.5352 106.9384,65.5624 C106.4664,65.5904 106.0152,65.6696 105.5808,65.7984 C105.1456,65.928 104.776,66.1216 104.472,66.3816 C104.1664,66.64 104.0144,67 104.0144,67.4632 C104.0144,67.9616 104.2264,68.3312 104.6512,68.572 C105.0768,68.812 105.52,68.932 105.9824,68.932 C106.388,68.932 106.7808,68.8768 107.1608,68.7656 C107.5392,68.6552 107.8768,68.4976 108.1728,68.2944 C108.4672,68.0912 108.7032,67.8328 108.88,67.5176 C109.0552,67.204 109.1432,66.8344 109.1432,66.408 L109.1432,65.5224 L108.1168,65.5224 L108.1168,65.5216 Z" id="Shape" fill="#FFFFFF"></path>
                    <path d="M115.5736,57.9528 L119.732,57.9528 L119.732,60.1152 L119.7872,60.1152 C120.2312,59.284 120.7576,58.6608 121.368,58.2448 C121.9776,57.828 122.7448,57.62 123.6688,57.62 C123.908,57.62 124.1488,57.6304 124.3888,57.648 C124.6288,57.6664 124.8512,57.7032 125.0544,57.7592 L125.0544,61.5576 C124.7592,61.4656 124.4672,61.396 124.1808,61.3496 C123.8952,61.3024 123.5936,61.2808 123.2808,61.2808 C122.4856,61.2808 121.856,61.3904 121.396,61.612 C120.9336,61.8336 120.5784,62.1448 120.328,62.5408 C120.0792,62.9384 119.9168,63.4136 119.8432,63.968 C119.7696,64.5224 119.732,65.1328 119.732,65.7976 L119.732,71.4256 L115.5736,71.4256 L115.5736,57.9528 L115.5736,57.9528 Z" id="Path" fill="#FFFFFF"></path>
                    <path d="M127.3544,57.9528 L131.3464,57.9528 L131.3464,59.7824 L131.4024,59.7824 C131.5304,59.5232 131.716,59.2656 131.9552,59.0064 C132.196,58.748 132.4824,58.5168 132.8152,58.3136 C133.148,58.1104 133.5272,57.9432 133.9512,57.8152 C134.376,57.6856 134.8376,57.62 135.336,57.62 C136.2808,57.62 137.116,57.8152 137.8464,58.2032 C138.576,58.5904 139.1256,59.2016 139.496,60.0328 C139.9768,59.164 140.5584,58.5456 141.2432,58.1752 C141.9264,57.8056 142.768,57.6208 143.7664,57.6208 C144.6712,57.6208 145.4336,57.7728 146.052,58.0784 C146.6704,58.3832 147.1616,58.7992 147.5216,59.3256 C147.8816,59.8536 148.1392,60.4728 148.2976,61.1832 C148.4536,61.896 148.5336,62.6568 148.5336,63.4704 L148.5336,71.4264 L144.3752,71.4264 L144.3752,63.5808 C144.3752,62.9528 144.2416,62.412 143.9728,61.9592 C143.704,61.5064 143.2288,61.2808 142.5464,61.2808 C142.0648,61.2808 141.6632,61.3576 141.34,61.5152 C141.0168,61.672 140.7568,61.8904 140.5632,62.1664 C140.3696,62.4448 140.2304,62.7672 140.1472,63.1368 C140.064,63.5064 140.0224,63.8952 140.0224,64.3008 L140.0224,71.4256 L135.8648,71.4256 L135.8648,64.3008 C135.8648,64.06 135.8544,63.7656 135.8368,63.4136 C135.8184,63.0632 135.7536,62.7304 135.6432,62.4168 C135.5328,62.1032 135.3528,61.8336 135.1024,61.612 C134.8528,61.3904 134.4872,61.2808 134.0072,61.2808 C133.4712,61.2808 133.0368,61.3776 132.704,61.5704 C132.3712,61.7648 132.1184,62.0224 131.9424,62.3464 C131.7664,62.6704 131.6512,63.036 131.596,63.4416 C131.54,63.8496 131.5128,64.2736 131.5128,64.7168 L131.5128,71.4264 L127.3544,71.4264 L127.3544,57.9528 Z" id="Path" fill="#FFFFFF"></path>
                </g>
            </g>
        </g>
    </g>
</svg>