<?xml version="1.0" encoding="UTF-8"?>
<svg width="116px" height="24px" viewBox="0 0 116 24" version="1.1" xmlns="http://www.w3.org/2000/svg" xmlns:xlink="http://www.w3.org/1999/xlink">
    <!-- Generator: Sketch 59 (86127) - https://sketch.com -->
    <title>helix-swarm-logo</title>
    <desc>Created with Sketch.</desc>
    <g id="Style-Guide-v1" stroke="none" stroke-width="1" fill="none" fill-rule="evenodd">
        <g id="Left-Sidenav" transform="translate(-429.000000, -271.000000)">
            <g id="Left-Nav-Specs" transform="translate(241.000000, 220.000000)">
                <g id="Left-Nav" transform="translate(173.000000, 38.000000)">
                    <g id="logo">
                        <g id="helix-swarm-logo" transform="translate(15.000000, 13.000000)">
                            <path d="M39.408,6.68 L39.408,18 L38.584,18 L38.584,12.576 L31.496,12.576 L31.496,18 L30.672,18 L30.672,6.68 L31.496,6.68 L31.496,11.96 L38.584,11.96 L38.584,6.68 L39.408,6.68 Z M48.02,13.216 C48.02,12.7893312 47.9600006,12.4066684 47.84,12.068 C47.7199994,11.7293316 47.5506678,11.4426678 47.332,11.208 C47.1133323,10.9733322 46.8533349,10.793334 46.552,10.668 C46.2506652,10.542666 45.9186685,10.48 45.556,10.48 C45.1453313,10.48 44.777335,10.5439994 44.452,10.672 C44.1266651,10.8000006 43.8453345,10.9839988 43.608,11.224 C43.3706655,11.4640012 43.1800007,11.7519983 43.036,12.088 C42.8919993,12.4240017 42.7960003,12.7999979 42.748,13.216 L48.02,13.216 Z M42.708,13.704 L42.708,13.856 C42.708,14.4533363 42.7773327,14.9786644 42.916,15.432 C43.0546674,15.8853356 43.2519987,16.2653318 43.508,16.572 C43.7640013,16.8786682 44.0733315,17.1093326 44.436,17.264 C44.7986685,17.4186674 45.2039978,17.496 45.652,17.496 C46.052002,17.496 46.3986652,17.4520004 46.692,17.364 C46.9853348,17.2759996 47.231999,17.1773339 47.432,17.068 C47.5820008,16.9859996 47.7087501,16.91 47.8122499,16.8400001 L47.908,16.772 C48.0253339,16.6839996 48.1106664,16.64 48.164,16.64 C48.2333337,16.64 48.2866665,16.6666664 48.324,16.72 L48.532,16.976 C48.4039994,17.1360008 48.2346677,17.2853326 48.024,17.424 C47.8133323,17.5626674 47.578668,17.6813328 47.32,17.78 C47.0613321,17.8786672 46.7840015,17.957333 46.488,18.016 C46.1919985,18.074667 45.8946682,18.104 45.596,18.104 C45.0519973,18.104 44.5560023,18.0093343 44.108,17.82 C43.6599978,17.6306657 43.2760016,17.3546685 42.956,16.992 C42.6359984,16.6293315 42.3893342,16.185336 42.216,15.66 C42.0426658,15.134664 41.956,14.5333367 41.956,13.856 C41.956,13.2853305 42.0373325,12.7586691 42.2,12.276 C42.3626675,11.7933309 42.5973318,11.3773351 42.904,11.028 C43.2106682,10.6786649 43.5866645,10.4053343 44.032,10.208 C44.4773356,10.0106657 44.9826639,9.912 45.548,9.912 C45.9960023,9.912 46.4119981,9.9893326 46.796,10.144 C47.1800019,10.2986674 47.5133319,10.5239985 47.796,10.82 C48.0786681,11.1160015 48.3013325,11.4799978 48.464,11.912 C48.6266675,12.3440022 48.708,12.8399972 48.708,13.4 C48.708,13.5173339 48.6920002,13.5973331 48.66,13.64 C48.6279999,13.6826669 48.5746671,13.704 48.5,13.704 L42.708,13.704 Z M51.92,6.36 L51.92,18 L51.152,18 L51.152,6.36 L51.92,6.36 Z M55.764,10.04 L55.764,18 L55.004,18 L55.004,10.04 L55.764,10.04 Z M56.092,7.296 C56.092,7.39200048 56.0720002,7.48133292 56.032,7.564 C55.9919998,7.64666708 55.9400004,7.71999968 55.876,7.784 C55.8119997,7.84800032 55.7373338,7.89866648 55.652,7.936 C55.5666663,7.97333352 55.4760005,7.992 55.38,7.992 C55.2839996,7.992 55.1933338,7.97333352 55.108,7.936 C55.0226663,7.89866648 54.9480004,7.84800032 54.884,7.784 C54.8199997,7.71999968 54.7693336,7.64666708 54.732,7.564 C54.6946665,7.48133292 54.676,7.39200048 54.676,7.296 C54.676,7.19999952 54.6946665,7.10800044 54.732,7.02 C54.7693336,6.93199956 54.8199997,6.85600032 54.884,6.792 C54.9480004,6.72799968 55.0226663,6.67733352 55.108,6.64 C55.1933338,6.60266648 55.2839996,6.584 55.38,6.584 C55.4760005,6.584 55.5666663,6.60266648 55.652,6.64 C55.7373338,6.67733352 55.8119997,6.72799968 55.876,6.792 C55.9400004,6.85600032 55.9919998,6.93199956 56.032,7.02 C56.0720002,7.10800044 56.092,7.19999952 56.092,7.296 Z M64.616,18 L63.888,18 C63.813333,18 63.7546669,17.9773336 63.712,17.932 C63.6693332,17.8866664 63.6346668,17.8426669 63.608,17.8 L61.192,14.272 C61.1706666,14.3680005 61.130667,14.4613329 61.072,14.552 L58.768,17.8 C58.7306665,17.8480002 58.6920002,17.8933331 58.652,17.936 C58.6119998,17.9786669 58.5600004,18 58.496,18 L57.808,18 L60.704,13.928 L57.92,10.04 L58.648,10.04 C58.7226671,10.04 58.7786665,10.0559998 58.816,10.088 L58.8680001,10.14 L58.8680001,10.14 L61.248,13.568 C61.2586668,13.5253331 61.2759999,13.4800002 61.3,13.432 L61.376,13.288 L61.376,13.288 L63.56,10.208 C63.5920002,10.1599998 63.6266665,10.1200002 63.664,10.088 C63.7013336,10.0559998 63.7493331,10.04 63.808,10.04 L64.504,10.04 L61.728,13.88 L64.616,18 Z M72.8360001,8.712 C72.7559997,8.84000064 72.6720005,8.93599968 72.5840001,9 C72.4959996,9.0640003 72.3826674,9.096 72.2440001,9.096 C72.1213328,9.096 71.9893341,9.0573337 71.8480001,8.98 L71.3680001,8.72 L71.3680001,8.72 C71.1893325,8.62399952 70.9853345,8.53733372 70.7560001,8.46 C70.5266656,8.38266628 70.2653349,8.344 69.9720001,8.344 C69.4653309,8.344 69.0880013,8.45199892 68.8400001,8.668 C68.5919988,8.88400108 68.4680001,9.1759982 68.4680001,9.544 C68.4680001,9.7786678 68.542666,9.9733326 68.6920001,10.128 C68.8413341,10.2826674 69.0373322,10.4159994 69.2800001,10.528 C69.462001,10.6120004 69.6634996,10.6907499 69.8844996,10.7642499 L70.1120001,10.836 C70.4240016,10.9293338 70.7426651,11.0333328 71.0680001,11.148 C71.393335,11.2626672 71.7119985,11.3973326 72.0240001,11.552 C72.3360016,11.7066674 72.6133322,11.9039988 72.8560001,12.144 C73.0986679,12.3840012 73.294666,12.6759983 73.4440001,13.02 C73.5933341,13.3640017 73.6680001,13.7786642 73.6680001,14.264 C73.6680001,14.8026694 73.5746677,15.3066643 73.3880001,15.776 C73.2013325,16.2453357 72.9306685,16.6546649 72.5760001,17.004 C72.2213316,17.3533351 71.7840027,17.627999 71.2640001,17.828 C70.7439975,18.028001 70.1533367,18.128 69.4920001,18.128 C69.1293316,18.128 68.7600019,18.090667 68.3840001,18.016 C68.0079982,17.941333 67.6440018,17.8360007 67.2920001,17.7 C66.9399983,17.5639993 66.6093349,17.4026676 66.3000001,17.216 C65.9906652,17.0293324 65.7213345,16.8213345 65.4920001,16.592 L66.2920001,15.328 C66.3560004,15.2373329 66.4399995,15.1613336 66.5440001,15.1 C66.6480006,15.0386664 66.7613328,15.008 66.8840001,15.008 C67.0440009,15.008 67.2053326,15.0586662 67.3680001,15.16 L67.9200001,15.496 L67.9200001,15.496 C68.1253344,15.6186673 68.3613321,15.7306662 68.6280001,15.832 C68.8946681,15.9333338 69.2093316,15.984 69.5720001,15.984 C70.0626692,15.984 70.4439987,15.8760011 70.7160001,15.66 C70.9880014,15.4439989 71.1240001,15.1013357 71.1240001,14.632 C71.1240001,14.3599986 71.0493341,14.1386675 70.9000001,13.968 C70.750666,13.7973325 70.5546679,13.6560006 70.3120001,13.544 C70.1299991,13.4599996 69.9292505,13.3835 69.7097505,13.3145001 L69.4840001,13.248 C69.1746652,13.1626662 68.857335,13.0680005 68.5320001,12.964 C68.2066651,12.8599995 67.8893349,12.7320008 67.5800001,12.58 C67.2706652,12.4279992 66.9946679,12.2280012 66.7520001,11.98 C66.5093322,11.7319988 66.3133341,11.4226685 66.1640001,11.052 C66.014666,10.6813315 65.9400001,10.2240027 65.9400001,9.68 C65.9400001,9.2426645 66.0279992,8.81600208 66.2040001,8.4 C66.3800009,7.98399792 66.638665,7.61333496 66.9800001,7.288 C67.3213351,6.96266504 67.7399976,6.70266764 68.2360001,6.508 C68.7320025,6.31333236 69.2999969,6.216 69.9400001,6.216 C70.2973352,6.216 70.6453317,6.24399972 70.9840001,6.3 C71.3226684,6.35600028 71.6439985,6.43866612 71.9480001,6.548 C72.2520016,6.65733388 72.5359987,6.78799924 72.8000001,6.94 C73.0640014,7.09200076 73.299999,7.26399904 73.5080001,7.456 L72.8360001,8.712 Z M87.2480001,9.704 L84.6720001,18 L82.6560001,18 C82.5493329,18 82.4586671,17.9680003 82.3840001,17.904 C82.309333,17.8399997 82.250667,17.7333341 82.2080001,17.584 L81.0240001,13.448 C80.9653331,13.2613324 80.9133336,13.0773342 80.8680001,12.896 C80.8226665,12.7146658 80.7813336,12.5306676 80.7440001,12.344 C80.7066666,12.5306676 80.6653336,12.7173324 80.6200001,12.904 C80.5746665,13.0906676 80.522667,13.2773324 80.4640001,13.464 L79.2640001,17.584 C79.1839997,17.8613347 79.0080014,18 78.7360001,18 L76.8160001,18 L74.2400001,9.704 L76.2240001,9.704 C76.400001,9.704 76.5479995,9.7453329 76.6680001,9.828 C76.7880007,9.9106671 76.8693332,10.0133327 76.9120001,10.136 L77.7440001,13.856 L77.872,14.4088886 C77.8915555,14.4989625 77.9102222,14.5879996 77.9280001,14.676 C77.9813337,14.9400013 78.0293332,15.205332 78.0720001,15.472 C78.1413338,15.205332 78.2146664,14.9400013 78.2920001,14.676 C78.3693338,14.4119987 78.453333,14.1386681 78.5440001,13.856 L79.5840001,10.128 C79.626667,10.0053327 79.7066662,9.9026671 79.8240001,9.82 C79.941334,9.7373329 80.0799993,9.696 80.2400001,9.696 L81.3440001,9.696 C81.520001,9.696 81.6679995,9.7373329 81.7880001,9.82 C81.9080007,9.9026671 81.9893332,10.0053327 82.0320001,10.128 L83.0240001,13.856 L83.2600001,14.68 L83.2600001,14.68 C83.3373338,14.946668 83.4079998,15.2159986 83.4720001,15.488 C83.514667,15.221332 83.5653331,14.954668 83.6240001,14.688 C83.682667,14.421332 83.749333,14.1440014 83.8240001,13.856 L84.7040001,10.136 C84.746667,10.0133327 84.8266662,9.9106671 84.9440001,9.828 C85.061334,9.7453329 85.1999993,9.704 85.3600001,9.704 L87.2480001,9.704 Z M92.5880001,14.624 C92.0919976,14.6453334 91.6840017,14.6879997 91.3640001,14.752 C91.0439985,14.8160003 90.7906677,14.8959995 90.6040001,14.992 C90.4173325,15.0880005 90.2880004,15.1973327 90.2160001,15.32 C90.1439997,15.4426673 90.1080001,15.5759993 90.1080001,15.72 C90.1080001,16.0026681 90.1853326,16.2013328 90.3400001,16.316 C90.4946675,16.4306672 90.7213319,16.488 91.0200001,16.488 C91.3400017,16.488 91.6199989,16.4320006 91.8600001,16.32 C92.1000013,16.2079994 92.3426655,16.0266679 92.5880001,15.776 L92.5880001,14.624 Z M88.1240001,10.856 C88.6253359,10.4133311 89.1813304,10.0840011 89.7920001,9.868 C90.4026698,9.6519989 91.0573299,9.544 91.7560001,9.544 C92.2573359,9.544 92.7093314,9.6253325 93.1120001,9.788 C93.5146688,9.9506675 93.8559987,10.1773319 94.1360001,10.468 C94.4160015,10.7586681 94.630666,11.103998 94.7800001,11.504 C94.9293342,11.904002 95.0040001,12.341331 95.0040001,12.816 L95.0040001,18 L93.8680001,18 C93.6333322,18 93.4560007,17.9680003 93.3360001,17.904 C93.2159995,17.8399997 93.1160005,17.7066677 93.0360001,17.504 L92.8600001,17.048 C92.651999,17.2240009 92.452001,17.378666 92.2600001,17.512 C92.0679991,17.645334 91.8693344,17.7586662 91.6640001,17.852 C91.4586657,17.9453338 91.2400001,18.0146664 91.0080001,18.06 C90.7759989,18.1053336 90.5186682,18.128 90.2360001,18.128 C89.8573315,18.128 89.513335,18.0786672 89.2040001,17.98 C88.8946652,17.8813328 88.6320012,17.736001 88.4160001,17.544 C88.199999,17.351999 88.033334,17.1133348 87.9160001,16.828 C87.7986662,16.5426652 87.7400001,16.2133352 87.7400001,15.84 C87.7400001,15.5413318 87.814666,15.2386682 87.9640001,14.932 C88.1133342,14.6253318 88.3719982,14.3453346 88.7400001,14.092 C89.1080019,13.8386654 89.603997,13.6266675 90.2280001,13.456 C90.8520032,13.2853325 91.638662,13.1893334 92.5880001,13.168 L92.5880001,12.816 C92.5880001,12.3306642 92.4880011,11.9800011 92.2880001,11.764 C92.0879991,11.5479989 91.8040019,11.44 91.4360001,11.44 C91.1426653,11.44 90.9026677,11.4719997 90.7160001,11.536 C90.5293325,11.6000003 90.3626675,11.6719996 90.2160001,11.752 C90.0693327,11.8320004 89.9266674,11.9039997 89.7880001,11.968 C89.6493327,12.0320003 89.484001,12.064 89.2920001,12.064 C89.1213326,12.064 88.977334,12.0213338 88.8600001,11.936 C88.7426662,11.8506662 88.6466671,11.7493339 88.5720001,11.632 L88.1240001,10.856 Z M99.2080001,10.984 C99.4640014,10.5359978 99.7586651,10.1840013 100.092,9.928 C100.425335,9.6719987 100.807998,9.544 101.24,9.544 C101.613335,9.544 101.917332,9.6319991 102.152,9.808 L101.992,11.632 C101.965333,11.7493339 101.921334,11.8293331 101.86,11.872 C101.798666,11.9146669 101.714667,11.936 101.608,11.936 L101.44,11.928 L101.44,11.928 L100.996,11.884 C100.918666,11.876 100.848,11.872 100.784,11.872 C100.421332,11.872 100.132001,11.967999 99.9160001,12.16 C99.699999,12.352001 99.5173342,12.618665 99.3680001,12.96 L99.3680001,18 L96.8880001,18 L96.8880001,9.704 L98.3600001,9.704 C98.4826674,9.704 98.585333,9.7146666 98.6680001,9.736 C98.7506672,9.7573334 98.8199998,9.7906664 98.8760001,9.836 C98.9320004,9.8813336 98.9746666,9.941333 99.0040001,10.016 C99.0333336,10.090667 99.0586667,10.1813328 99.0800001,10.288 L99.2080001,10.984 Z M103.292,18 L103.292,9.704 L104.828,9.704 C105.137335,9.704 105.34,9.8426653 105.436,10.12 L105.572,10.568 C105.710667,10.4239993 105.854666,10.2920006 106.004,10.172 C106.153334,10.0519994 106.314666,9.9480004 106.488,9.86 C106.661334,9.7719996 106.847999,9.7026669 107.048,9.652 C107.248001,9.6013331 107.467999,9.576 107.708,9.576 C108.209336,9.576 108.623998,9.705332 108.952,9.964 C109.280002,10.222668 109.529333,10.5679978 109.7,11 C109.838667,10.7439987 110.007999,10.5253342 110.208,10.344 C110.408001,10.1626658 110.623999,10.0160006 110.856,9.904 C111.088001,9.7919994 111.333332,9.7093336 111.592,9.656 C111.850668,9.6026664 112.107999,9.576 112.364,9.576 C112.838669,9.576 113.259998,9.646666 113.628,9.788 C113.996002,9.929334 114.303999,10.1346653 114.552,10.404 C114.800001,10.6733347 114.987999,11.003998 115.116,11.396 C115.244001,11.788002 115.308,12.2319975 115.308,12.728 L115.308,18 L112.828,18 L112.828,12.728 C112.828,11.869329 112.460004,11.44 111.724,11.44 C111.387998,11.44 111.109335,11.5506656 110.888,11.772 C110.666666,11.9933344 110.556,12.3119979 110.556,12.728 L110.556,18 L108.076,18 L108.076,12.728 C108.076,12.253331 107.982668,11.920001 107.796,11.728 C107.609333,11.535999 107.334669,11.44 106.972,11.44 C106.747999,11.44 106.536001,11.4906662 106.336,11.592 C106.135999,11.6933338 105.948001,11.8293325 105.772,12 L105.772,18 L103.292,18 Z" id="HelixSwarm" fill-opacity="0.99" fill="#FFFFFF" fill-rule="nonzero"></path>
                            <path d="M0.305549451,5.84613382 C0.137515129,5.93857252 5.66718404e-05,6.16549054 5.66718404e-05,6.35036795 L5.66718404e-05,17.7768048 C5.66718404e-05,17.9616822 0.137515129,18.1886002 0.305549451,18.2810389 L10.694431,23.9942573 C10.8624653,24.086696 11.1373822,24.086696 11.3056824,23.9942573 L21.6945639,18.2810389 C21.8625982,18.1886002 22.0000567,17.9616822 22.0000567,17.7768048 L22.0000567,6.35036795 C22.0000567,6.16549054 21.8625982,5.93857252 21.6945639,5.84613382 L11.3056824,0.132915398 C11.1373822,0.0404766945 10.8624653,0.0404766945 10.694431,0.132915398 L0.305549451,5.84613382 Z" id="Fill-1" fill="#FFFFFF"></path>
                            <path d="M15.7500792,6 C16.9904592,6 18,6.9350634 18,8.08450843 L18,8.08450843 L18,11.932338 C18,12.3926808 17.5970705,12.766244 17.0999208,12.766244 C16.6030483,12.766244 16.2001188,12.3926808 16.2001188,11.932338 L16.2001188,11.932338 L16.2001188,8.08450843 C16.2001188,7.85857329 15.993943,7.6675554 15.7500792,7.6675554 L15.7500792,7.6675554 L6.24992082,7.6675554 C6.00605701,7.6675554 5.79988124,7.85857329 5.79988124,8.08450843 L5.79988124,8.08450843 L5.79988124,13.5955287 C5.79988124,13.8214638 6.00605701,14.0124817 6.24992082,14.0124817 L6.24992082,14.0124817 L14.5374109,14.0124817 C15.2462787,14.0124817 15.7999604,14.2879686 16.0571259,14.7683375 C16.3140143,15.2487064 16.2153603,15.823814 15.7863816,16.3465458 L15.7863816,16.3465458 L13.6146081,18.9910139 L11.4023753,19 L14.0718527,15.6800371 L6.24992082,15.6800371 C5.00926366,15.6800371 4,14.7449737 4,13.5955287 L4,13.5955287 L4,8.08450843 C4,6.9350634 5.00926366,6 6.24992082,6 L6.24992082,6 Z M9.24812764,9 C9.47009056,9 9.6772961,9.0806213 9.81734055,9.22115385 C9.94112177,9.3454142 9.99834423,9.50172584 9.97846695,9.66148915 C9.95858968,9.82075937 9.86402203,9.96474359 9.71223192,10.0658284 L8.32202727,10.9940828 L9.730001,11.9341716 C9.88209228,12.035503 9.97635876,12.1792406 9.99623604,12.3387574 C10.0158121,12.4982742 9.95858968,12.6545858 9.83480846,12.7788462 C9.69506518,12.9193787 9.48785964,13 9.26589672,13 C9.09543402,13 8.93521112,12.9534024 8.80269595,12.8648915 L6,10.9938363 L8.78522804,9.13510848 C8.91774321,9.04684418 9.07766494,9 9.24812764,9 Z M12.751583,9 C12.9223621,9 13.0822981,9.04684418 13.2145238,9.13510848 L16,10.9938363 L13.1970544,12.8648915 C13.0645274,12.9534024 12.9042902,13 12.7338123,13 C12.5118296,13 12.3046056,12.9193787 12.1648499,12.7790927 C11.9091331,12.5224359 11.9561199,12.1434911 12.2696667,11.9341716 L13.6777659,10.9940828 L12.2874374,10.066075 C12.1356337,9.96474359 12.0410577,9.82075937 12.0211786,9.66148915 C12.0012996,9.50172584 12.0585271,9.3454142 12.1823194,9.22115385 C12.3223763,9.0806213 12.5299015,9 12.751583,9 Z" id="Combined-Shape" fill="#63A70A"></path>
                        </g>
                    </g>
                </g>
            </g>
        </g>
    </g>
</svg>