<?xml version="1.0" encoding="utf-8"?>
<!-- Generator: Adobe Illustrator 16.0.0, SVG Export Plug-In . SVG Version: 6.00 Build 0)  -->
<!DOCTYPE svg PUBLIC "-//W3C//DTD SVG 1.1//EN" "http://www.w3.org/Graphics/SVG/1.1/DTD/svg11.dtd">
<svg version="1.1" id="Layer_1" xmlns="http://www.w3.org/2000/svg" xmlns:xlink="http://www.w3.org/1999/xlink" x="0px" y="0px"
	 width="18px" height="18px" viewBox="0 0 18 18" enable-background="new 0 0 18 18" xml:space="preserve">
<path id="_xE09A_" fill="#ffffff" d="M16,7.484c0.24,0.042,0.467,0.159,0.68,0.352S17,8.266,17,8.547v1
	c0,0.271-0.107,0.49-0.32,0.656S16.24,10.484,16,10.547l-1.297,0.312c-0.053,0.156-0.107,0.305-0.164,0.445
	s-0.123,0.279-0.195,0.414l0.688,1.156c0.135,0.209,0.219,0.447,0.25,0.719s-0.053,0.506-0.25,0.703L14.328,15
	c-0.197,0.197-0.438,0.289-0.719,0.273s-0.525-0.092-0.734-0.227l-1.125-0.719c-0.146,0.072-0.291,0.141-0.438,0.203
	s-0.303,0.119-0.469,0.172L10.562,16c-0.041,0.24-0.158,0.467-0.352,0.68S9.781,17,9.5,17h-1c-0.271,0-0.49-0.107-0.656-0.32
	S7.562,16.24,7.5,16l-0.312-1.281c-0.167-0.053-0.333-0.111-0.5-0.18s-0.328-0.143-0.484-0.227l-1.156,0.734
	c-0.198,0.135-0.44,0.211-0.727,0.227S3.797,15.197,3.609,15l-0.719-0.703c-0.188-0.197-0.266-0.432-0.234-0.703
	s0.109-0.51,0.234-0.719l0.734-1.219c-0.062-0.125-0.123-0.252-0.18-0.383s-0.107-0.268-0.148-0.414L2,10.547
	c-0.24-0.062-0.466-0.178-0.68-0.344S1,9.818,1,9.547v-1c0-0.281,0.107-0.518,0.32-0.711S1.76,7.526,2,7.484l1.281-0.281
	c0.042-0.146,0.094-0.292,0.156-0.438s0.125-0.287,0.188-0.422L2.891,5.125C2.766,4.917,2.688,4.677,2.656,4.406
	s0.047-0.505,0.234-0.703L3.609,3C3.797,2.802,4.034,2.711,4.32,2.727s0.529,0.091,0.727,0.227l1.156,0.734
	C6.359,3.604,6.518,3.529,6.68,3.461s0.326-0.127,0.492-0.18L7.5,2c0.052-0.24,0.162-0.466,0.328-0.68S8.219,1,8.5,1h1
	c0.281,0,0.516,0.107,0.703,0.32s0.307,0.435,0.359,0.664l0.281,1.312C11,3.349,11.154,3.406,11.305,3.469s0.299,0.13,0.445,0.203
	l1.125-0.719c0.209-0.135,0.453-0.211,0.734-0.227S14.131,2.802,14.328,3l0.703,0.703c0.197,0.198,0.281,0.432,0.25,0.703
	s-0.115,0.51-0.25,0.719l-0.688,1.156c0.072,0.146,0.143,0.294,0.211,0.445s0.123,0.31,0.164,0.477L16,7.484z M16,9.469l0.016-0.891
	c-0.01-0.01-0.037-0.029-0.078-0.055s-0.088-0.044-0.141-0.055l-1.859-0.422L13.766,7.5c-0.031-0.125-0.072-0.25-0.125-0.375
	s-0.115-0.255-0.188-0.391l-0.25-0.5l0.984-1.641c0.031-0.042,0.055-0.083,0.07-0.125s0.023-0.073,0.023-0.094l-0.656-0.641
	c-0.031,0-0.064,0.005-0.102,0.016s-0.07,0.026-0.102,0.047l-1.609,1.031l-0.516-0.266c-0.125-0.062-0.25-0.123-0.375-0.18
	s-0.256-0.102-0.391-0.133L9.984,4.062L9.578,2.172C9.568,2.13,9.553,2.091,9.531,2.055L9.5,2H8.578
	C8.557,2.021,8.537,2.052,8.516,2.094S8.479,2.188,8.469,2.25L8.016,4.062L7.484,4.234C7.349,4.276,7.213,4.326,7.078,4.383
	S6.807,4.505,6.672,4.578L6.156,4.844L4.484,3.781L4.406,3.742C4.375,3.727,4.344,3.713,4.312,3.703L3.656,4.359
	c0,0.031,0.008,0.068,0.023,0.109s0.039,0.088,0.07,0.141l1.016,1.688l-0.25,0.484c-0.062,0.135-0.117,0.26-0.164,0.375
	S4.266,7.385,4.234,7.5L4.062,8.047L2.172,8.469C2.141,8.479,2.107,8.495,2.07,8.516S2.01,8.547,2,8.547v0.922
	C2.021,9.49,2.052,9.508,2.094,9.523S2.188,9.553,2.25,9.562l1.828,0.469l0.172,0.531c0.031,0.104,0.07,0.211,0.117,0.32
	s0.102,0.221,0.164,0.336l0.234,0.484L3.75,13.406c-0.031,0.041-0.055,0.084-0.07,0.125s-0.023,0.078-0.023,0.109l0.656,0.641
	c0.031,0,0.065-0.008,0.102-0.023s0.07-0.033,0.102-0.055l1.641-1.047l0.516,0.266c0.135,0.072,0.271,0.139,0.406,0.195
	s0.271,0.107,0.406,0.148l0.531,0.172l0.469,1.844c0.01,0.053,0.023,0.096,0.039,0.133S8.557,15.979,8.578,16h0.906
	c0.01-0.01,0.029-0.037,0.055-0.078s0.045-0.084,0.055-0.125L10,13.938l0.547-0.188c0.125-0.041,0.25-0.088,0.375-0.141
	s0.25-0.109,0.375-0.172l0.516-0.266l1.641,1.047l0.078,0.039c0.031,0.016,0.062,0.029,0.094,0.039l0.656-0.656
	c0-0.031-0.008-0.068-0.023-0.109s-0.039-0.088-0.07-0.141l-0.984-1.625l0.25-0.5c0.062-0.115,0.117-0.232,0.164-0.352
	s0.092-0.242,0.133-0.367l0.172-0.516l1.859-0.469c0.053-0.01,0.096-0.023,0.133-0.039S15.979,9.49,16,9.469z M9,6
	c0.834,0,1.545,0.292,2.133,0.875S12.016,8.167,12.016,9c0,0.834-0.295,1.541-0.883,2.125S9.834,12,9,12
	c-0.823,0-1.529-0.291-2.117-0.875S6,9.834,6,9c0-0.833,0.294-1.542,0.883-2.125S8.177,6,9,6z M9,11
	c0.553,0,1.023-0.195,1.414-0.586S11,9.553,11,9c0-0.552-0.195-1.023-0.586-1.414S9.553,7,9,7C8.448,7,7.977,7.195,7.586,7.586
	S7,8.448,7,9c0,0.553,0.195,1.023,0.586,1.414S8.448,11,9,11z"/>
</svg>
