<?xml version="1.0" encoding="utf-8"?>
<!-- Generator: Adobe Illustrator 16.0.0, SVG Export Plug-In . SVG Version: 6.00 Build 0)  -->
<!DOCTYPE svg PUBLIC "-//W3C//DTD SVG 1.1//EN" "http://www.w3.org/Graphics/SVG/1.1/DTD/svg11.dtd">
<svg version="1.1" id="Layer_1" xmlns="http://www.w3.org/2000/svg" xmlns:xlink="http://www.w3.org/1999/xlink" x="0px" y="0px"
	 width="18px" height="18px" viewBox="0 0 18 18" enable-background="new 0 0 18 18" xml:space="preserve">
<path id="Combined-Shape" fill="#ffffff" d="M13.5,0.5C14.881,0.5,16,1.619,16,3c0,1.209-0.859,2.219-2,2.45V7.5l-4.497,4H9.5v1.051
	c1.141,0.23,2,1.24,2,2.449c0,1.381-1.119,2.5-2.5,2.5S6.5,16.381,6.5,15c0-1.209,0.859-2.219,2-2.45l0-1.05H8.497L4,7.5l0-2.05
	C2.859,5.218,2,4.209,2,3c0-1.381,1.119-2.5,2.5-2.5S7,1.619,7,3c0,1.209-0.859,2.219-2,2.45l0,1.727L8.989,10.5h0.02L13,7.177V5.45
	c-1.141-0.231-2-1.24-2-2.45C11,1.619,12.119,0.5,13.5,0.5z M9,13.5c-0.829,0-1.5,0.672-1.5,1.5s0.671,1.5,1.5,1.5
	c0.828,0,1.5-0.672,1.5-1.5S9.828,13.5,9,13.5z M4.5,1.5C3.671,1.5,3,2.171,3,3s0.671,1.5,1.5,1.5S6,3.829,6,3S5.329,1.5,4.5,1.5z
	 M13.5,1.5C12.672,1.5,12,2.171,12,3s0.672,1.5,1.5,1.5S15,3.829,15,3S14.328,1.5,13.5,1.5z"/>
</svg>
