<?xml version="1.0" encoding="utf-8"?>
<!-- Generator: Adobe Illustrator 16.0.0, SVG Export Plug-In . SVG Version: 6.00 Build 0)  -->
<!DOCTYPE svg PUBLIC "-//W3C//DTD SVG 1.1//EN" "http://www.w3.org/Graphics/SVG/1.1/DTD/svg11.dtd">
<svg version="1.1" id="Layer_1" xmlns="http://www.w3.org/2000/svg" xmlns:xlink="http://www.w3.org/1999/xlink" x="0px" y="0px"
	 width="18px" height="18px" viewBox="0 0 18 18" enable-background="new 0 0 18 18" xml:space="preserve">
<path id="ion-android-folder-open---Ionicons" fill="#ffffff" d="M15.465,4.65c0.404,0,0.762,0.149,1.07,0.447
	C16.846,5.395,17,5.738,17,6.128v7.394c0,0.391-0.154,0.734-0.465,1.031C16.227,14.852,15.869,15,15.465,15H2.536
	c-0.405,0-0.762-0.148-1.071-0.447C1.155,14.256,1,13.912,1,13.521V4.478c0-0.39,0.155-0.733,0.464-1.031S2.131,3,2.536,3h4.929
	L9,4.65H15.465z M15.857,13.521V6.128c0-0.252-0.131-0.378-0.393-0.378H2.143v7.771c0,0.252,0.131,0.379,0.393,0.379h12.929
	C15.727,13.9,15.857,13.773,15.857,13.521z"/>
</svg>
