<?xml version="1.0" encoding="utf-8"?>
<!-- Generator: Adobe Illustrator 16.0.0, SVG Export Plug-In . SVG Version: 6.00 Build 0)  -->
<!DOCTYPE svg PUBLIC "-//W3C//DTD SVG 1.1//EN" "http://www.w3.org/Graphics/SVG/1.1/DTD/svg11.dtd">
<svg version="1.1" id="Layer_1" xmlns="http://www.w3.org/2000/svg" xmlns:xlink="http://www.w3.org/1999/xlink" x="0px" y="0px"
	 width="18px" height="18px" viewBox="0 0 18 18" enable-background="new 0 0 18 18" xml:space="preserve">
<path id="people_outline---material" fill="#ffffff" d="M12.5,4c-0.404,0-0.756,0.147-1.054,0.443C11.148,4.738,11,5.084,11,5.482
	s0.148,0.75,0.446,1.057S12.096,7,12.5,7s0.756-0.15,1.054-0.452S14,5.895,14,5.491c0-0.404-0.152-0.753-0.455-1.048
	C13.241,4.147,12.893,4,12.5,4z M12.509,8c-0.455,0-0.874-0.115-1.255-0.344s-0.686-0.535-0.912-0.919
	C10.113,6.354,10,5.933,10,5.474c0-0.458,0.113-0.876,0.342-1.254c0.227-0.378,0.531-0.676,0.912-0.893
	C11.635,3.109,12.054,3,12.509,3c0.454,0,0.873,0.112,1.254,0.335c0.382,0.224,0.683,0.524,0.904,0.902
	C14.889,4.615,15,5.027,15,5.474s-0.113,0.865-0.342,1.254c-0.227,0.39-0.531,0.699-0.912,0.928S12.952,8,12.509,8z M5.5,4
	C5.095,4,4.744,4.147,4.446,4.443C4.149,4.738,4,5.084,4,5.482s0.149,0.75,0.446,1.057C4.744,6.846,5.095,7,5.5,7
	s0.756-0.15,1.054-0.452C6.851,6.247,7,5.895,7,5.491c0-0.404-0.152-0.753-0.456-1.048C6.241,4.147,5.893,4,5.5,4z M5.509,8
	C5.054,8,4.635,7.885,4.254,7.656C3.873,7.427,3.569,7.121,3.341,6.737S3,5.933,3,5.474C3,5.016,3.114,4.598,3.341,4.22
	c0.228-0.378,0.532-0.676,0.913-0.893C4.635,3.109,5.054,3,5.509,3c0.455,0,0.873,0.112,1.254,0.335
	c0.381,0.224,0.683,0.524,0.904,0.902C7.889,4.615,8,5.027,8,5.474S7.886,6.339,7.659,6.729S7.127,7.427,6.746,7.656
	C6.365,7.885,5.952,8,5.509,8z M16,14v-1.8c0-0.128-0.191-0.622-0.574-0.813c-0.384-0.191-0.852-0.357-1.402-0.496
	c-0.622-0.149-1.215-0.224-1.777-0.224c-0.611,0-1.795-0.056-2.292,0.437c0.132,0.139,0.273,0.553,0.333,0.681
	c0.061,0.128,0.09,0.267,0.09,0.416V14H16z M9,14v-1.98c0-0.128-1.486-1.149-2-1.288c-0.581-0.149-0.975-0.364-1.5-0.364
	s-1.235,0.215-1.816,0.364C3.17,10.87,2,11.892,2,12.02V14H9z M12.277,9c0.568,0,1.208,0.106,1.916,0.32
	c0.791,0.227,1.436,0.526,1.936,0.9C16.709,10.674,17,11.18,17,11.74V15H1v-3.26c0-0.561,0.296-1.066,0.889-1.52
	c0.488-0.374,1.127-0.674,1.917-0.9C4.515,9.106,5.16,9,5.741,9C6.194,9,6.717,9.073,7.31,9.221C7.925,9.38,8.489,9.594,9,9.859
	c0.523-0.266,1.092-0.479,1.708-0.639C11.301,9.073,11.824,9,12.277,9z"/>
</svg>
