<?xml version="1.0" encoding="utf-8"?>
<!-- Generator: Adobe Illustrator 16.0.0, SVG Export Plug-In . SVG Version: 6.00 Build 0)  -->
<!DOCTYPE svg PUBLIC "-//W3C//DTD SVG 1.1//EN" "http://www.w3.org/Graphics/SVG/1.1/DTD/svg11.dtd">
<svg version="1.1" id="Layer_1" xmlns="http://www.w3.org/2000/svg" xmlns:xlink="http://www.w3.org/1999/xlink" x="0px" y="0px"
	 width="18px" height="18px" viewBox="0 0 18 18" enable-background="new 0 0 18 18" xml:space="preserve">
<path id="_xF002_" fill="#949494" d="M12.077,7.769c0-2.375-1.934-4.307-4.309-4.307S3.462,5.394,3.462,7.769
	s1.932,4.309,4.307,4.309S12.077,10.144,12.077,7.769z M17,15.769C17,16.442,16.442,17,15.769,17c-0.326,0-0.644-0.134-0.864-0.366
	l-3.298-3.288c-1.125,0.779-2.473,1.192-3.838,1.192C4.029,14.538,1,11.509,1,7.769C1,4.029,4.029,1,7.769,1
	c3.74,0,6.77,3.029,6.77,6.769c0,1.365-0.413,2.713-1.192,3.838l3.298,3.298C16.866,15.125,17,15.442,17,15.769z"/>
</svg>
