<?xml version="1.0" encoding="utf-8"?>
<!-- Generator: Adobe Illustrator 16.0.0, SVG Export Plug-In . SVG Version: 6.00 Build 0)  -->
<!DOCTYPE svg PUBLIC "-//W3C//DTD SVG 1.1//EN" "http://www.w3.org/Graphics/SVG/1.1/DTD/svg11.dtd">
<svg version="1.1" id="Layer_1" xmlns="http://www.w3.org/2000/svg" xmlns:xlink="http://www.w3.org/1999/xlink" x="0px" y="0px"
	 width="18px" height="18px" viewBox="0 0 18 18" enable-background="new 0 0 18 18" xml:space="preserve">
<path id="Combined-Shape" fill="#ffffff" d="M15.18,2.5C15.418,2.5,16,3.262,16,3.505l-0.001,3.994h-0.998l0.001-3.724
	c0-0.183-0.09-0.275-0.27-0.275H2.289C2.109,3.5,2.02,3.592,2.02,3.775V14.19c0,0.069,0.034,0.138,0.101,0.206
	C2.188,14.466,2.255,14.5,2.322,14.5l5.688-0.001V15.5H1.913c-0.238,0-0.446-0.092-0.624-0.273s-0.268-0.395-0.268-0.639
	c-0.028-7.149-0.028-10.899,0-11.25C1.063,2.813,1.651,2.5,1.913,2.5H15.18z M15.967,9.5L17,10.562L12.15,15.5L9,12.332l1.033-1.045
	l2.117,2.105L15.967,9.5z M7,11.5v1H4v-1H7z M10,8.5v1H4v-1H10z M12,5.5v1H4v-1H12z"/>
</svg>
