<?xml version="1.0" encoding="utf-8"?>
<!-- Generator: Adobe Illustrator 16.0.0, SVG Export Plug-In . SVG Version: 6.00 Build 0)  -->
<!DOCTYPE svg PUBLIC "-//W3C//DTD SVG 1.1//EN" "http://www.w3.org/Graphics/SVG/1.1/DTD/svg11.dtd">
<svg version="1.1" id="Layer_1" xmlns="http://www.w3.org/2000/svg" xmlns:xlink="http://www.w3.org/1999/xlink" x="0px" y="0px"
	 width="18px" height="18px" viewBox="0 0 18 18" enable-background="new 0 0 18 18" xml:space="preserve">
<path id="_xE052_" fill="#ffffff" d="M16.719,4.375c0.084,0.042,0.15,0.102,0.203,0.18S17,4.719,17,4.812
	c0,0.281-0.006,0.633-0.016,1.055s-0.053,0.865-0.125,1.328s-0.188,0.912-0.344,1.344s-0.381,0.795-0.672,1.086l-0.203,0.219
	c-0.375,0.375-0.797,0.664-1.266,0.867s-0.959,0.305-1.469,0.305c-0.312,0-0.646-0.047-1-0.141s-0.672-0.213-0.953-0.359
	l-5.844,5.906c-0.198,0.197-0.419,0.344-0.664,0.438S3.948,17,3.688,17c-0.25,0-0.498-0.047-0.742-0.141s-0.466-0.24-0.664-0.438
	l-0.703-0.719C1.193,15.307,1,14.83,1,14.273s0.193-1.033,0.578-1.43l5.781-5.891c-0.156-0.365-0.258-0.75-0.305-1.156
	S7.013,4.984,7.07,4.578s0.172-0.794,0.344-1.164s0.398-0.701,0.68-0.992l0.219-0.219c0.271-0.271,0.612-0.487,1.023-0.648
	c0.412-0.162,0.844-0.284,1.297-0.367s0.904-0.135,1.352-0.156S12.834,1,13.188,1h0.125c0.094,0,0.18,0.023,0.258,0.07
	s0.139,0.112,0.18,0.195s0.055,0.172,0.039,0.266s-0.055,0.177-0.117,0.25l-2.25,2.594l2.266,2.344l2.531-2.266
	c0.072-0.062,0.154-0.102,0.242-0.117S16.635,4.333,16.719,4.375z M15.156,8.953c0.303-0.312,0.516-0.776,0.641-1.391
	S16,6.391,16.031,5.891l-2.047,1.844c-0.094,0.083-0.203,0.123-0.328,0.117s-0.234-0.055-0.328-0.148l-2.891-2.969
	c-0.084-0.094-0.127-0.203-0.133-0.328s0.033-0.234,0.117-0.328l1.828-2.109c-0.469,0.021-1.049,0.094-1.742,0.219
	S9.307,2.542,8.984,2.875L8.766,3.094C8.391,3.479,8.156,3.969,8.062,4.562S7.984,5.698,8.109,6.188
	c0.042,0.177,0.099,0.346,0.172,0.508s0.162,0.32,0.266,0.477l-6.266,6.391C2.094,13.76,2,13.998,2,14.273s0.094,0.514,0.281,0.711
	l0.703,0.719c0.094,0.094,0.203,0.166,0.328,0.219S3.562,16,3.688,16c0.135,0,0.266-0.025,0.391-0.078s0.234-0.125,0.328-0.219
	l6.406-6.469c0.125,0.125,0.26,0.234,0.406,0.328s0.297,0.172,0.453,0.234c0.178,0.072,0.381,0.127,0.609,0.164
	s0.438,0.055,0.625,0.055c0.385,0,0.756-0.07,1.109-0.211s0.672-0.352,0.953-0.633L15.156,8.953z"/>
</svg>
