<?xml version="1.0" encoding="utf-8"?>
<!-- Generator: Adobe Illustrator 16.0.0, SVG Export Plug-In . SVG Version: 6.00 Build 0)  -->
<!DOCTYPE svg PUBLIC "-//W3C//DTD SVG 1.1//EN" "http://www.w3.org/Graphics/SVG/1.1/DTD/svg11.dtd">
<svg version="1.1" id="Layer_1" xmlns="http://www.w3.org/2000/svg" xmlns:xlink="http://www.w3.org/1999/xlink" x="0px" y="0px"
	 width="16px" height="16px" viewBox="0 0 16 16" enable-background="new 0 0 16 16" xml:space="preserve">
<path id="arrow_drop_down_circle---material" d="M8,5.3L5,9.586h6L8,5.3z M8,15c-1.279,0-2.463-0.32-3.551-0.959
	c-1.055-0.605-1.885-1.436-2.49-2.49C1.32,10.463,1,9.279,1,8c0-1.279,0.32-2.462,0.959-3.55c0.605-1.055,1.436-1.885,2.49-2.491
	C5.537,1.32,6.721,1,8,1s2.463,0.32,3.551,0.959c1.055,0.617,1.885,1.453,2.49,2.507C14.68,5.555,15,6.732,15,8
	s-0.32,2.445-0.959,3.533c-0.617,1.055-1.453,1.891-2.508,2.508C10.445,14.68,9.268,15,8,15z"/>
</svg>
