<?xml version="1.0" encoding="utf-8"?>
<!-- Generator: Adobe Illustrator 16.0.0, SVG Export Plug-In . SVG Version: 6.00 Build 0)  -->
<!DOCTYPE svg PUBLIC "-//W3C//DTD SVG 1.1//EN" "http://www.w3.org/Graphics/SVG/1.1/DTD/svg11.dtd">
<svg version="1.1" id="Layer_1" xmlns="http://www.w3.org/2000/svg" xmlns:xlink="http://www.w3.org/1999/xlink" x="0px" y="0px"
	 width="16px" height="16px" viewBox="0 0 16 16" enable-background="new 0 0 16 16" xml:space="preserve">
<g id="My-Dashboard-alt-01" transform="translate(-260.000000, -68.000000)">
	
		<g id="_ionicons_svg_md-globe" transform="translate(267.000000, 75.000000) scale(-1, 1) translate(-267.000000, -75.000000) translate(260.000000, 68.000000)">
		<path id="Shape" fill="#FFFFFF" d="M6,1C2.134,1-1,4.134-1,8s3.134,7,7,7s7-3.134,7-7S9.866,1,6,1z M5.275,13.957
			c-1.328-0.159-2.559-0.754-3.519-1.715C0.624,11.109,0,9.604,0,8c0-1.443,0.506-2.808,1.434-3.893
			c0.023,0.287,0.084,0.594,0.068,0.814C1.445,5.722,1.367,6.223,1.836,6.899c0.184,0.263,0.229,0.64,0.316,0.945
			c0.086,0.298,0.434,0.454,0.674,0.638c0.482,0.37,0.945,0.802,1.458,1.127c0.338,0.216,0.55,0.322,0.45,0.734
			c-0.08,0.332-0.103,0.536-0.273,0.832c-0.053,0.09,0.197,0.67,0.281,0.754c0.252,0.252,0.502,0.483,0.777,0.711
			C5.946,12.992,5.479,13.45,5.275,13.957z M10.243,12.242c-0.863,0.863-1.942,1.43-3.115,1.652
			c0.166-0.412,0.462-0.776,0.737-0.988c0.239-0.184,0.538-0.539,0.663-0.819s0.29-0.522,0.457-0.782
			c0.238-0.365-0.586-0.92-0.854-1.035C7.53,10.009,7.078,9.656,6.544,9.281c-0.38-0.268-1.153,0.14-1.583-0.049
			C4.373,8.977,3.889,8.529,3.377,8.145C2.85,7.748,2.875,7.284,2.875,6.698C3.288,6.713,3.877,6.583,4.15,6.916
			c0.086,0.105,0.385,0.573,0.584,0.407c0.162-0.136-0.121-0.681-0.176-0.81C4.391,6.119,4.943,5.965,5.227,5.698
			c0.369-0.349,1.16-0.896,1.096-1.146C6.26,4.302,5.531,3.594,5.104,3.704C5.04,3.721,4.475,4.313,4.366,4.406
			c0.002-0.193,0.006-0.387,0.008-0.58C4.375,3.704,4.146,3.579,4.156,3.5c0.027-0.199,0.58-0.561,0.719-0.719
			C4.777,2.721,4.449,2.438,4.35,2.479C4.107,2.58,3.835,2.649,3.594,2.75c0-0.084-0.01-0.163-0.021-0.24
			C4.059,2.295,4.57,2.146,5.096,2.067l0.475,0.19l0.334,0.397l0.334,0.344l0.292,0.094l0.464-0.438l-0.12-0.312V2.063
			c0.917,0.133,1.783,0.476,2.542,1.003C9.281,3.078,9.132,3.098,8.964,3.12c-0.07-0.041-0.159-0.06-0.235-0.089
			c0.22,0.473,0.449,0.938,0.682,1.405c0.249,0.498,0.801,1.033,0.897,1.558c0.114,0.62,0.035,1.183,0.098,1.912
			c0.06,0.701,0.792,1.5,0.792,1.5s0.338,0.115,0.619,0.074C11.555,10.518,11.018,11.467,10.243,12.242z"/>
	</g>
</g>
</svg>
