<?xml version="1.0" encoding="utf-8"?>
<!-- Generator: Adobe Illustrator 16.0.0, SVG Export Plug-In . SVG Version: 6.00 Build 0)  -->
<!DOCTYPE svg PUBLIC "-//W3C//DTD SVG 1.1//EN" "http://www.w3.org/Graphics/SVG/1.1/DTD/svg11.dtd">
<svg version="1.1" id="Layer_1" xmlns="http://www.w3.org/2000/svg" xmlns:xlink="http://www.w3.org/1999/xlink" x="0px" y="0px"
	 width="16px" height="16px" viewBox="0 0 16 16" enable-background="new 0 0 16 16" xml:space="preserve">
<path id="Shape" d="M10.971,9.801h-0.637L10.094,9.6c0.76-0.918,1.238-2.08,1.238-3.399c0-2.881-2.316-5.2-5.186-5.2
	C3.313,1,1,3.319,1,6.2c0,2.88,2.313,5.2,5.185,5.2c1.277,0,2.474-0.479,3.391-1.24l0.24,0.201v0.638L13.803,15L15,13.8
	L10.971,9.801z M6.185,9.801c-1.994,0-3.59-1.601-3.59-3.601s1.596-3.6,3.589-3.6c1.995,0,3.591,1.6,3.591,3.6
	S8.179,9.801,6.185,9.801z"/>
</svg>
