<?xml version="1.0" encoding="utf-8"?>
<!-- Generator: Adobe Illustrator 16.0.0, SVG Export Plug-In . SVG Version: 6.00 Build 0)  -->
<!DOCTYPE svg PUBLIC "-//W3C//DTD SVG 1.1//EN" "http://www.w3.org/Graphics/SVG/1.1/DTD/svg11.dtd">
<svg version="1.1" id="Layer_1" xmlns="http://www.w3.org/2000/svg" xmlns:xlink="http://www.w3.org/1999/xlink" x="0px" y="0px"
	 width="16px" height="16px" viewBox="0 0 16 16" enable-background="new 0 0 16 16" xml:space="preserve">
<path d="M15,12.139C15,13.717,13.717,15,12.139,15H3.864C2.283,15,1,13.717,1,12.139V3.864C1,2.283,2.283,1,3.864,1h8.275
	C13.717,1,15,2.283,15,3.864V12.139z M13.729,3.864c0-0.875-0.715-1.591-1.59-1.591H3.864c-0.875,0-1.591,0.716-1.591,1.591v8.274
	c0,0.875,0.716,1.59,1.591,1.59h8.275c0.875,0,1.59-0.715,1.59-1.59V3.864z M12.455,8.319c0,0.179-0.139,0.32-0.316,0.32h-3.5v3.5
	c0,0.178-0.141,0.316-0.32,0.316H7.681c-0.179,0-0.317-0.139-0.317-0.316v-3.5h-3.5c-0.179,0-0.319-0.141-0.319-0.32V7.681
	c0-0.179,0.14-0.317,0.319-0.317h3.5v-3.5c0-0.179,0.139-0.319,0.317-0.319h0.638c0.179,0,0.32,0.14,0.32,0.319v3.5h3.5
	c0.178,0,0.316,0.139,0.316,0.317V8.319z"/>
</svg>
