<?xml version="1.0" encoding="utf-8"?>
<!-- Generator: Adobe Illustrator 16.0.0, SVG Export Plug-In . SVG Version: 6.00 Build 0)  -->
<!DOCTYPE svg PUBLIC "-//W3C//DTD SVG 1.1//EN" "http://www.w3.org/Graphics/SVG/1.1/DTD/svg11.dtd">
<svg version="1.1" id="Layer_1" xmlns="http://www.w3.org/2000/svg" xmlns:xlink="http://www.w3.org/1999/xlink" x="0px" y="0px"
	 width="16px" height="16px" viewBox="0 0 16 16" enable-background="new 0 0 16 16" xml:space="preserve">
<path id="Shape" d="M8,3.5C4.818,3.5,2.112,5.36,1,8c1.112,2.641,3.818,4.5,7,4.5c3.182,0,5.887-1.858,7-4.5
	C13.887,5.359,11.182,3.5,8,3.5z M8,11.001c-1.75,0-3.182-1.351-3.182-3C4.818,6.35,6.25,4.999,8,4.999S11.182,6.35,11.182,8
	S9.75,11.001,8,11.001z M8,6.2C6.95,6.2,6.09,7.011,6.09,8c0,0.99,0.86,1.799,1.91,1.799S9.908,8.989,9.908,8S9.05,6.2,8,6.2z"/>
</svg>
