<?xml version="1.0" encoding="utf-8"?>
<!-- Generator: Adobe Illustrator 16.0.0, SVG Export Plug-In . SVG Version: 6.00 Build 0)  -->
<!DOCTYPE svg PUBLIC "-//W3C//DTD SVG 1.1//EN" "http://www.w3.org/Graphics/SVG/1.1/DTD/svg11.dtd">
<svg version="1.1" id="Layer_1" xmlns="http://www.w3.org/2000/svg" xmlns:xlink="http://www.w3.org/1999/xlink" x="0px" y="0px"
	 width="16px" height="16px" viewBox="0 0 16 16" enable-background="new 0 0 16 16" xml:space="preserve">
<path d="M8,8c1.52,0,2.752-1.567,2.752-3.5S10.346,1,8,1C5.654,1,5.25,2.567,5.25,4.5S6.481,8,8,8z M13.494,12.904
	C13.441,9.557,12.998,8.604,9.596,8c0,0-0.479,0.6-1.596,0.6S6.406,8,6.406,8C3.042,8.598,2.57,9.536,2.508,12.795
	c-0.004,0.268-0.007,0.278-0.008,0.247c0,0.06,0,0.166,0,0.353C2.5,13.395,3.31,15,8,15c4.691,0,5.5-1.605,5.5-1.605
	c0-0.119,0-0.203,0-0.261C13.5,13.154,13.498,13.118,13.494,12.904z"/>
</svg>
