<?xml version="1.0" encoding="utf-8"?>
<!-- Generator: Adobe Illustrator 16.0.0, SVG Export Plug-In . SVG Version: 6.00 Build 0)  -->
<!DOCTYPE svg PUBLIC "-//W3C//DTD SVG 1.1//EN" "http://www.w3.org/Graphics/SVG/1.1/DTD/svg11.dtd">
<svg version="1.1" id="Layer_1" xmlns="http://www.w3.org/2000/svg" xmlns:xlink="http://www.w3.org/1999/xlink" x="0px" y="0px"
	 width="16px" height="16px" viewBox="0 0 16 16" enable-background="new 0 0 16 16" xml:space="preserve">
<path d="M3.644,7.999h2.178l-2.893,2.895L0,7.999h2.179c0-1.046,0.268-2.021,0.802-2.929c0.51-0.882,1.208-1.579,2.091-2.091
	C5.979,2.445,6.954,2.179,8,2.179c0.559,0,1.102,0.077,1.631,0.234c0.527,0.156,1.02,0.386,1.473,0.688L10.04,4.147
	C9.423,3.812,8.744,3.643,8,3.643c-0.79,0-1.52,0.194-2.187,0.584c-0.669,0.39-1.197,0.918-1.587,1.586
	C3.838,6.479,3.644,7.209,3.644,7.999z M13.072,5.105L16,7.999h-2.18c0,1.046-0.268,2.021-0.801,2.93
	c-0.513,0.883-1.209,1.579-2.092,2.09c-0.906,0.535-1.883,0.803-2.929,0.803c-0.546,0-1.087-0.08-1.621-0.244
	c-0.534-0.162-1.028-0.391-1.481-0.68l1.063-1.045c0.616,0.336,1.296,0.504,2.039,0.504c0.79,0,1.519-0.193,2.188-0.582
	c0.668-0.391,1.194-0.918,1.586-1.588c0.39-0.668,0.584-1.396,0.584-2.188h-2.18L13.072,5.105z"/>
</svg>
