<?xml version="1.0" encoding="UTF-8"?>
<svg width="16px" height="16px" viewBox="0 0 16 16" version="1.1" xmlns="http://www.w3.org/2000/svg" xmlns:xlink="http://www.w3.org/1999/xlink">
    <!-- Generator: Sketch 52.3 (67297) - http://www.bohemiancoding.com/sketch -->
    <title>My Dashboard-alt-01</title>
    <desc>Created with Sketch.</desc>
    <g id="My-Dashboard" stroke="none" stroke-width="1" fill="none" fill-rule="evenodd">
        <g id="My-Dashboard-alt-01" transform="translate(-1120.000000, -281.000000)">
            <rect x="0" y="0" width="1336" height="860"></rect>
            <path d="M1132.45456,288.681824 L1132.45456,289.318189 C1132.45456,289.497166 1132.31535,289.636371 1132.13637,289.636371 L1123.86364,289.636371 C1123.68466,289.636371 1123.54546,289.497166 1123.54546,289.318189 L1123.54546,288.681824 C1123.54546,288.502847 1123.68466,288.363642 1123.86364,288.363642 L1132.13637,288.363642 C1132.31535,288.363642 1132.45456,288.502847 1132.45456,288.681824 Z M1133.72728,293.136374 L1133.72728,284.863639 C1133.72728,283.988638 1133.01137,283.272728 1132.13637,283.272728 L1123.86364,283.272728 C1122.98864,283.272728 1122.27273,283.988638 1122.27273,284.863639 L1122.27273,293.136374 C1122.27273,294.011375 1122.98864,294.727285 1123.86364,294.727285 L1132.13637,294.727285 C1133.01137,294.727285 1133.72728,294.011375 1133.72728,293.136374 Z M1135.00001,284.863639 L1135.00001,293.136374 C1135.00001,294.717341 1133.71734,296.000013 1132.13637,296.000013 L1123.86364,296.000013 C1122.28267,296.000013 1121,294.717341 1121,293.136374 L1121,284.863639 C1121,283.282672 1122.28267,282 1123.86364,282 L1132.13637,282 C1133.71734,282 1135.00001,283.282672 1135.00001,284.863639 Z" id="minus-square-o---FontAwesome" fill="#959595" transform="translate(1128.000006, 289.000006) scale(1, -1) translate(-1128.000006, -289.000006) "></path>
        </g>
    </g>
</svg>