<?xml version="1.0" encoding="utf-8"?>
<!-- Generator: Adobe Illustrator 16.0.0, SVG Export Plug-In . SVG Version: 6.00 Build 0)  -->
<!DOCTYPE svg PUBLIC "-//W3C//DTD SVG 1.1//EN" "http://www.w3.org/Graphics/SVG/1.1/DTD/svg11.dtd">
<svg version="1.1" id="Layer_1" xmlns="http://www.w3.org/2000/svg" xmlns:xlink="http://www.w3.org/1999/xlink" x="0px" y="0px"
	 width="16px" height="16px" viewBox="0 0 16 16" enable-background="new 0 0 16 16" xml:space="preserve">
<path id="Path" d="M8,8c1.381,0,2.5-1.567,2.5-3.5S10.133,1,8,1C5.868,1,5.5,2.567,5.5,4.5S6.619,8,8,8z"/>
<path id="Path_1_" d="M12.994,12.902C12.945,9.557,12.541,8.604,9.449,8c0,0-0.436,0.6-1.449,0.6C6.986,8.6,6.55,8,6.55,8
	c-3.058,0.598-3.486,1.536-3.543,4.795C3.003,13.061,3.001,13.074,3,13.043c0,0.059,0,0.166,0,0.352C3,13.395,3.736,15,8,15
	c4.264,0,5-1.605,5-1.605c0-0.119,0-0.203,0-0.26C12.999,13.154,12.998,13.117,12.994,12.902z"/>
<path id="Path_2_" fill-opacity="0.5" d="M11.939,7C13.078,7,14,5.657,14,4s-0.303-3-2.061-3c-0.295,0-0.549,0.038-0.769,0.109
	c0.405,0.897,0.461,1.987,0.461,2.856c0,0.985-0.223,1.925-0.633,2.703C11.281,6.88,11.602,7,11.939,7z"/>
<path id="Path_3_" fill-opacity="0.5" d="M15.996,11.622C15.957,9.15,15.643,8.446,13.229,8c0,0-0.34,0.443-1.133,0.443
	c-0.033,0-0.063-0.001-0.096-0.003c0.504,0.232,0.961,0.556,1.299,1.028c0.582,0.818,0.717,1.917,0.744,3.531
	C15.667,12.672,16,11.986,16,11.986c0-0.09,0-0.151,0-0.193C16,11.809,15.998,11.781,15.996,11.622z"/>
<path id="Path_4_" fill-opacity="0.5" d="M4.06,7C4.399,7,4.718,6.88,5,6.669C4.59,5.891,4.367,4.951,4.367,3.966
	c0-0.87,0.056-1.959,0.461-2.856C4.61,1.038,4.355,1,4.06,1C2.303,1,2,2.343,2,4S2.922,7,4.06,7z"/>
<path id="Path_5_" fill-opacity="0.5" d="M4,8.44C3.969,8.442,3.937,8.443,3.904,8.443C3.112,8.443,2.772,8,2.772,8
	c-2.414,0.446-2.73,1.15-2.768,3.622C0.002,11.781,0,11.809,0,11.793c0,0.042,0,0.104,0,0.193c0,0,0.333,0.686,1.957,1.014
	c0.028-1.614,0.162-2.713,0.745-3.531C3.039,8.996,3.497,8.673,4,8.44z"/>
</svg>
